<?xml version="1.0" standalone="no"?>
<!DOCTYPE svg PUBLIC "-//W3C//DTD SVG 20010904//EN"
 "http://www.w3.org/TR/2001/REC-SVG-20010904/DTD/svg10.dtd">
<svg version="1.0" xmlns="http://www.w3.org/2000/svg"
 width="512.000000pt" height="512.000000pt" viewBox="0 0 512.000000 512.000000"
 preserveAspectRatio="xMidYMid meet">
<metadata>
Created by potrace 1.14, written by Peter Selinger 2001-2017
</metadata>
<g transform="translate(0.000000,512.000000) scale(0.100000,-0.100000)"
fill="#000000" stroke="none">
<path d="M605 4645 c-51 -18 -120 -91 -134 -141 -16 -56 -15 -3833 0 -3889 15
-53 91 -129 144 -144 29 -8 609 -11 2043 -11 l2002 0 0 1630 0 1630 -175 0
-175 0 0 -1525 0 -1525 -1750 0 -1750 0 0 1915 0 1915 1420 0 1420 0 0 80 0
80 -1502 0 c-1270 -1 -1509 -3 -1543 -15z"/>
<path d="M3810 4580 l0 -80 273 0 c313 0 307 2 307 -83 0 -75 -8 -77 -253 -77
-232 0 -258 -6 -300 -64 -21 -29 -22 -43 -25 -223 l-3 -193 425 0 426 0 0 85
0 85 -290 0 -290 0 0 58 c0 93 -3 92 252 92 207 0 216 1 249 23 18 12 44 38
57 57 22 33 23 42 20 170 -3 121 -5 138 -25 166 -45 63 -52 64 -457 64 l-366
0 0 -80z"/>
<path d="M1175 2837 c-3 -6 -4 -188 -3 -402 l3 -390 138 -3 137 -3 0 161 0
160 145 0 c132 0 145 -2 155 -19 5 -11 10 -83 10 -160 l0 -141 136 0 135 0 -3
174 c-3 160 -5 177 -24 203 l-22 29 22 29 c19 26 21 43 21 150 0 111 -2 123
-24 154 -49 68 -63 71 -464 71 -277 0 -359 -3 -362 -13z m575 -176 c15 -30 12
-97 -6 -115 -12 -13 -41 -16 -155 -16 l-139 0 0 75 0 75 145 0 c132 0 145 -2
155 -19z"/>
<path d="M2220 2827 c-30 -16 -51 -37 -67 -67 -23 -43 -23 -48 -23 -382 l0
-338 135 0 135 0 0 160 0 160 160 0 160 0 0 -160 0 -160 135 0 135 0 0 338 c0
334 0 339 -23 382 -16 30 -37 51 -67 67 -42 23 -49 23 -340 23 -291 0 -298 0
-340 -23z m484 -169 c10 -14 16 -44 16 -75 l0 -53 -160 0 -160 0 0 53 c0 31 6
61 16 75 14 21 22 22 144 22 122 0 130 -1 144 -22z"/>
<path d="M3090 2445 l0 -405 353 0 c369 1 402 4 449 47 51 46 53 59 53 348 0
149 -3 282 -7 297 -11 38 -57 88 -95 104 -25 11 -111 14 -393 14 l-360 0 0
-405z m568 223 c9 -9 12 -73 12 -225 0 -200 -1 -213 -19 -223 -11 -5 -81 -10
-155 -10 l-136 0 0 235 0 235 143 0 c98 0 147 -4 155 -12z"/>
</g>
</svg>
